<svg xmlns="http://www.w3.org/2000/svg" viewBox="0 0 492.75 108"><defs><style>.cls-1{fill:#665acc;}</style></defs><g id="Layer_2" data-name="Layer 2"><g id="Layer_2-2" data-name="Layer 2"><path class="cls-1" d="M362.71,49.5A32.06,32.06,0,0,0,335.81,0H283.5a6.75,6.75,0,0,0-6.75,6.75v94.5A6.75,6.75,0,0,0,283.5,108h52.31a35.43,35.43,0,0,0,26.9-58.5Zm-59-19.12A3.37,3.37,0,0,1,307.12,27h28.69a5.07,5.07,0,0,1,0,10.13H307.12a3.38,3.38,0,0,1-3.37-3.38ZM335.81,81H307.12a3.37,3.37,0,0,1-3.37-3.37V67.5a3.37,3.37,0,0,1,3.37-3.37h28.69a8.44,8.44,0,1,1,0,16.87Z"/><path class="cls-1" d="M148.5,108H162a6.75,6.75,0,0,0,6.75-6.75V38.18l7.91,7.91,13.4,13.4,2.07,2.08a6.71,6.71,0,0,0,7.24,0l2.07-2.08,13.4-13.4,7.91-7.91v63.07A6.75,6.75,0,0,0,229.5,108H243a6.75,6.75,0,0,0,6.75-6.75V6.75A6.75,6.75,0,0,0,243,0H225.38a6.74,6.74,0,0,0-3.79,1.16L219.79,3l-24,24-24-24-1.8-1.8A6.73,6.73,0,0,0,166.13,0H148.5a6.75,6.75,0,0,0-6.75,6.75v94.5A6.75,6.75,0,0,0,148.5,108Z"/><path class="cls-1" d="M60.75,81H27V6.75A6.75,6.75,0,0,0,20.25,0H6.75A6.75,6.75,0,0,0,0,6.75v94.5A6.75,6.75,0,0,0,6.75,108h54a6.75,6.75,0,0,0,6.75-6.75V87.75A6.75,6.75,0,0,0,60.75,81Z"/><rect class="cls-1" x="87.75" width="27" height="108" rx="6.75"/><path class="cls-1" d="M438.75,0a54,54,0,1,0,54,54A54,54,0,0,0,438.75,0Zm0,81a27,27,0,1,1,27-27A27,27,0,0,1,438.75,81Z"/></g></g></svg>